<svg width="1440" height="278" viewBox="0 0 1440 278" fill="none" xmlns="http://www.w3.org/2000/svg">
<g clip-path="url(#clip0_322_39776)">
<path d="M148.766 80.9092C66.0966 61.3465 12.7276 78.3352 -3.62323 89.2748C-64.0122 154.269 -163.861 266.368 -80.145 194.81C24.5001 105.363 119.989 133.677 169.695 147.834C219.402 161.991 286.767 168.426 361.981 133.677C437.194 98.9274 490.171 110.511 563.422 147.834C636.674 185.158 707.309 185.158 785.139 147.834C862.969 110.511 871.472 89.2748 1019.28 133.677C1167.09 178.079 1231.19 154.913 1289.4 110.511C1335.97 74.9889 1417.81 63.9635 1452.91 62.891C1458.36 65.6795 1469.26 57.0994 1469.26 0.470633C1390.12 -4.67744 1300.52 33.2896 1231.19 71.2566C1161.86 109.224 1083.38 89.2748 1019.28 62.891C955.188 36.5072 843.348 26.211 785.139 71.2566C726.93 116.302 675.916 131.103 586.314 89.2748C496.711 47.4467 429.346 28.785 361.981 62.891C294.615 96.9969 252.103 105.363 148.766 80.9092Z" fill="#F16577"/>
</g>
<g clip-path="url(#clip1_322_39776)">
<path d="M148.766 140.157C66.0966 120.594 12.7276 137.583 -3.62323 148.523C-64.0122 213.517 -163.861 325.616 -80.145 254.058C24.5001 164.61 119.989 192.925 169.695 207.082C219.402 221.239 286.767 227.674 361.981 192.925C437.194 158.175 490.171 169.758 563.422 207.082C636.674 244.405 707.309 244.405 785.139 207.082C862.969 169.758 871.472 148.523 1019.28 192.925C1167.09 237.327 1231.19 214.16 1289.4 169.758C1335.97 134.237 1417.81 123.211 1452.91 122.139C1458.36 124.927 1469.26 116.347 1469.26 59.7184C1390.12 54.5703 1300.52 92.5373 1231.19 130.504C1161.86 168.471 1083.38 148.523 1019.28 122.139C955.188 95.7549 843.348 85.4587 785.139 130.504C726.93 175.55 675.916 190.351 586.314 148.523C496.711 106.694 429.346 88.0328 361.981 122.139C294.615 156.245 252.103 164.61 148.766 140.157Z" fill="#F9DB2F"/>
</g>
<defs>
<clipPath id="clip0_322_39776">
<rect width="1442" height="217.85" fill="white" transform="translate(-1)"/>
</clipPath>
<clipPath id="clip1_322_39776">
<rect width="1442" height="228.788" fill="white" transform="translate(-1 48.3097)"/>
</clipPath>
</defs>
</svg>
