<svg width="1440" height="169" viewBox="0 0 1440 169" fill="none" xmlns="http://www.w3.org/2000/svg">
<path d="M1455.98 46.9995C1504.36 21.4611 1566.78 -3.87128 1621.52 0.493652C1620.94 39.6384 1613 66.1965 1609.26 64.2134C1584.95 64.5972 1528.17 71.3845 1495.57 95.4644C1454.82 125.564 1410.21 140.925 1308.33 108.726C1206.45 76.5271 1200.35 91.1195 1146.08 116.126C1091.82 141.133 1042.92 140.414 992.585 113.868C942.251 87.3214 905.692 78.7747 853.266 102.029C800.841 125.283 754.268 120.149 719.999 109.856C716.448 108.789 712.558 107.614 708.356 106.429C713.467 113.921 716.916 118.222 715.655 117.554C691.344 117.938 632.256 93.4743 599.655 117.554C582.242 130.416 564.805 139.415 542.595 142.993C524.734 157.178 521.321 155.126 526.208 144.591C498.874 145.656 464.334 139.635 416.147 124.406C314.266 92.2067 308.163 106.799 253.9 131.806C199.637 156.813 150.734 156.094 100.4 129.547C50.0663 103.001 13.5072 94.4544 -38.9182 117.708C-91.3437 140.963 -137.917 135.828 -172.186 125.536C-206.455 115.243 -272.276 94.6979 -345.634 155.462C-404.321 204.074 -333.747 106.865 -291.278 62.5532C-279.846 55.1578 -242.725 43.9577 -185.69 58.3228C-114.396 76.279 -84.8783 70.93 -37.8928 48.0405C9.09259 25.1512 55.541 38.7373 117.149 68.564C178.757 98.3907 214.227 88.6791 254.984 58.1343C295.742 27.5896 373.065 35.8461 417.172 54.7368C461.278 73.6277 515.411 88.2176 563.795 62.6792C586.923 50.4711 602.479 43.4266 618.395 39.8735C636.86 35.0237 666.872 32.6635 706.495 42.6431C777.789 60.5993 807.306 55.2503 854.292 32.3608C901.277 9.47149 947.726 23.0576 1009.33 52.8843C1070.94 82.711 1106.41 72.9994 1147.17 42.4546C1187.93 11.9099 1265.25 20.1664 1309.36 39.0571C1353.46 57.9481 1407.6 72.5379 1455.98 46.9995Z" fill="#2B8B00"/>
</svg>
