<svg width="1440" height="169" viewBox="0 0 1440 169" fill="none" xmlns="http://www.w3.org/2000/svg">
<path d="M1455.98 121.743C1504.36 147.282 1566.78 172.614 1621.52 168.249C1620.94 129.106 1613 102.548 1609.26 104.529C1584.95 104.146 1528.17 97.3583 1495.57 73.2783C1454.82 43.1785 1410.21 27.8177 1308.33 60.0166C1206.45 92.2157 1200.35 77.6232 1146.08 52.6162C1091.82 27.6093 1042.92 28.3287 992.584 54.875C942.251 81.4212 905.692 89.9682 853.266 66.7139C800.84 43.4595 754.267 48.5941 719.998 58.8867C716.448 59.9532 712.558 61.1287 708.356 62.3135C713.466 54.8225 716.915 50.522 715.656 51.1885C691.344 50.8047 632.256 75.2685 599.655 51.1885C582.242 38.327 564.806 29.3292 542.598 25.751C524.735 11.5641 521.32 13.6164 526.207 24.1514C498.873 23.0863 464.333 29.1078 416.147 44.3369C314.266 76.536 308.163 61.9435 253.9 36.9365C199.637 11.9296 150.734 12.649 100.4 39.1953C50.0659 65.7415 13.507 74.2885 -38.9185 51.0342C-91.3442 27.7798 -137.917 32.9144 -172.186 43.207C-206.455 53.4997 -272.276 74.0451 -345.634 13.2803C-404.321 -35.3314 -333.748 61.8771 -291.278 106.189C-279.847 113.585 -242.725 124.785 -185.69 110.42C-114.396 92.4636 -84.8785 97.8127 -37.8931 120.702C9.09232 143.592 55.5407 130.005 117.149 100.179C178.757 70.3521 214.226 80.0637 254.984 110.608C295.741 141.153 373.066 132.897 417.172 114.006C461.278 95.115 515.411 80.5253 563.794 106.063C586.923 118.271 602.479 125.316 618.395 128.869C636.859 133.719 666.871 136.079 706.495 126.1C777.788 108.143 807.306 113.493 854.291 136.383C901.277 159.272 947.725 145.685 1009.33 115.858C1070.94 86.0318 1106.41 95.7434 1147.17 126.288C1187.93 156.833 1265.25 148.576 1309.36 129.686C1353.46 110.795 1407.6 96.205 1455.98 121.743Z" fill="#2B8B00"/>
</svg>
