<svg width="1440" height="169" viewBox="0 0 1440 169" fill="none" xmlns="http://www.w3.org/2000/svg">
<path d="M1455.98 46.9985C1504.36 21.4602 1566.78 -3.87115 1621.52 0.493652C1620.94 39.6378 1613 66.195 1609.26 64.2124C1584.95 64.5962 1528.18 71.3836 1495.58 95.4634C1454.82 125.563 1410.21 140.924 1308.33 108.725C1206.45 76.5261 1200.35 91.1185 1146.08 116.125C1091.82 141.132 1042.92 140.413 992.586 113.867C942.252 87.3204 905.692 78.7735 853.266 102.028C800.841 125.282 754.268 120.148 719.999 109.855C716.448 108.788 712.558 107.613 708.356 106.428C713.467 113.92 716.917 118.22 715.656 117.553C691.345 117.937 632.257 93.4736 599.656 117.553C582.243 130.415 564.806 139.415 542.597 142.993C524.736 157.178 521.321 155.125 526.208 144.591C498.874 145.656 464.334 139.634 416.147 124.405C314.266 92.2058 308.163 106.798 253.9 131.805C199.637 156.812 150.735 156.093 100.401 129.546C50.0672 103 13.5076 94.4542 -38.9181 117.708C-91.3436 140.963 -137.917 135.827 -172.186 125.535C-206.455 115.242 -272.276 94.6978 -345.634 155.462C-404.32 204.073 -333.747 106.864 -291.277 62.5522C-279.846 55.1568 -242.724 43.9569 -185.69 58.3218C-114.396 76.2781 -84.8781 70.929 -37.8927 48.0396C9.0928 25.1501 55.542 38.7363 117.15 68.563C178.758 98.3895 214.228 88.6781 254.985 58.1333C295.743 27.5889 373.067 35.8459 417.173 54.7368C461.279 73.6277 515.413 88.2166 563.796 62.6782C586.923 50.4706 602.479 43.4257 618.394 39.8726C636.859 35.0225 666.871 32.6624 706.495 42.6421C777.789 60.5984 807.306 55.2493 854.292 32.3599C901.277 9.47039 947.727 23.0566 1009.33 52.8833C1070.94 82.7098 1106.41 72.9984 1147.17 42.4536C1187.93 11.9092 1265.25 20.1663 1309.36 39.0571C1353.46 57.9481 1407.6 72.537 1455.98 46.9985Z" fill="#F47A7B"/>
</svg>
