<svg width="32" height="32" viewBox="0 0 32 32" fill="none" xmlns="http://www.w3.org/2000/svg">
<path d="M0 16C0 10.3995 0 7.59921 1.08993 5.4601C2.04867 3.57847 3.57847 2.04867 5.4601 1.08993C7.59921 0 10.3995 0 16 0C21.6005 0 24.4008 0 26.5399 1.08993C28.4215 2.04867 29.9513 3.57847 30.9101 5.4601C32 7.59921 32 10.3995 32 16C32 21.6005 32 24.4008 30.9101 26.5399C29.9513 28.4215 28.4215 29.9513 26.5399 30.9101C24.4008 32 21.6005 32 16 32C10.3995 32 7.59921 32 5.4601 30.9101C3.57847 29.9513 2.04867 28.4215 1.08993 26.5399C0 24.4008 0 21.6005 0 16Z" fill="#F9DB2F"/>
<path d="M20.764 17.2552L21.333 13.6472H17.778V11.3052C17.7569 11.0316 17.7977 10.7568 17.8974 10.501C17.997 10.2453 18.1529 10.0153 18.3536 9.82813C18.5543 9.64091 18.7945 9.50128 19.0565 9.41959C19.3185 9.3379 19.5955 9.31625 19.867 9.35625H21.483V6.28425C20.5337 6.13486 19.5749 6.05332 18.614 6.04025C17.9622 5.98188 17.3056 6.06757 16.6906 6.29124C16.0756 6.51491 15.5173 6.87108 15.0553 7.33453C14.5933 7.79798 14.2388 8.35736 14.0171 8.97304C13.7953 9.58872 13.7116 10.2456 13.772 10.8972V13.6472H10.517V17.2552H13.772V25.9782H17.778V17.2552H20.764Z" fill="black"/>
</svg>
