<svg width="32" height="32" viewBox="0 0 32 32" fill="none" xmlns="http://www.w3.org/2000/svg">
<path d="M0 16C0 10.3995 0 7.59921 1.08993 5.4601C2.04867 3.57847 3.57847 2.04867 5.4601 1.08993C7.59921 0 10.3995 0 16 0C21.6005 0 24.4008 0 26.5399 1.08993C28.4215 2.04867 29.9513 3.57847 30.9101 5.4601C32 7.59921 32 10.3995 32 16C32 21.6005 32 24.4008 30.9101 26.5399C29.9513 28.4215 28.4215 29.9513 26.5399 30.9101C24.4008 32 21.6005 32 16 32C10.3995 32 7.59921 32 5.4601 30.9101C3.57847 29.9513 2.04867 28.4215 1.08993 26.5399C0 24.4008 0 21.6005 0 16Z" fill="#F9DB2F"/>
<path d="M11.2595 24.5994H7.6925V13.1174H11.2595V24.5994ZM9.4735 11.5504C9.06316 11.5521 8.66149 11.4322 8.3193 11.2057C7.97711 10.9793 7.70975 10.6564 7.55103 10.278C7.39231 9.89957 7.34935 9.48259 7.42759 9.07977C7.50583 8.67695 7.70175 8.30636 7.99058 8.01488C8.27941 7.72339 8.64819 7.52408 9.05028 7.44216C9.45237 7.36024 9.86972 7.39938 10.2496 7.55463C10.6294 7.70988 10.9547 7.97427 11.1843 8.31437C11.4139 8.65448 11.5375 9.05503 11.5395 9.46537C11.54 10.0152 11.3232 10.543 10.9361 10.9336C10.5491 11.3242 10.0233 11.5459 9.4735 11.5504ZM24.6085 24.5994H21.0485V19.0114C21.0485 17.6794 21.0215 15.9704 19.1945 15.9704C17.3405 15.9704 17.0565 17.4184 17.0565 18.9154V24.5994H13.4935V13.1174H16.9135V14.6834H16.9635C17.3056 14.098 17.8 13.6164 18.3942 13.2899C18.9884 12.9634 19.66 12.8043 20.3375 12.8294C23.9465 12.8294 24.6105 15.2064 24.6105 18.2934V24.5994H24.6085Z" fill="black"/>
</svg>
