<svg width="32" height="32" viewBox="0 0 32 32" fill="none" xmlns="http://www.w3.org/2000/svg">
<rect width="32" height="32" rx="10" fill="#F9DB2F"/>
<path d="M15.9707 10.8517C14.9596 10.8514 13.9711 11.1508 13.1301 11.7123C12.2892 12.2738 11.6337 13.072 11.2465 14.0061C10.8592 14.9401 10.7577 15.9681 10.9547 16.9598C11.1518 17.9516 11.6385 18.8626 12.3533 19.5778C13.0682 20.2929 13.979 20.78 14.9707 20.9774C15.9624 21.1748 16.9904 21.0737 17.9246 20.6868C18.8588 20.3 19.6573 19.6447 20.2191 18.804C20.7809 17.9633 21.0808 16.9749 21.0808 15.9637C21.0823 15.2922 20.9513 14.6269 20.695 14.0061C20.4388 13.3853 20.0625 12.8212 19.5877 12.3462C19.1129 11.8712 18.549 11.4947 17.9283 11.2382C17.3076 10.9818 16.6423 10.8504 15.9707 10.8517ZM15.9707 19.2867C15.3135 19.2869 14.6709 19.0922 14.1243 18.7272C13.5777 18.3622 13.1516 17.8433 12.9 17.2361C12.6483 16.6289 12.5824 15.9607 12.7105 15.3161C12.8386 14.6714 13.155 14.0792 13.6197 13.6144C14.0844 13.1496 14.6765 12.833 15.3211 12.7047C15.9657 12.5764 16.6339 12.6421 17.2412 12.8936C17.8484 13.1451 18.3675 13.571 18.7327 14.1175C19.0978 14.664 19.2928 15.3065 19.2928 15.9637C19.2912 16.8444 18.9407 17.6885 18.3181 18.3114C17.6954 18.9342 16.8514 19.2849 15.9707 19.2867ZM22.4827 10.6428C22.4827 10.8785 22.4128 11.109 22.2819 11.305C22.1509 11.501 21.9647 11.6538 21.7469 11.744C21.5291 11.8342 21.2894 11.8578 21.0582 11.8118C20.827 11.7659 20.6146 11.6523 20.4479 11.4856C20.2812 11.3189 20.1676 11.1065 20.1217 10.8753C20.0757 10.6441 20.0993 10.4044 20.1895 10.1866C20.2797 9.96878 20.4325 9.78262 20.6285 9.65164C20.8245 9.52066 21.055 9.45075 21.2908 9.45075C21.4473 9.45049 21.6024 9.48115 21.7471 9.54097C21.8918 9.60079 22.0232 9.6886 22.1339 9.79935C22.2445 9.9101 22.3322 10.0416 22.3919 10.1864C22.4516 10.3311 22.4821 10.4862 22.4817 10.6428H22.4827ZM25.8667 11.8568C25.8996 10.307 25.3213 8.80652 24.2568 7.67975C23.1281 6.61886 21.6295 6.0411 20.0808 6.06975C18.4348 5.97675 13.5027 5.97675 11.8568 6.06975C10.3088 6.03745 8.80957 6.61207 7.67975 7.67075C6.61706 8.79869 6.03902 10.2984 6.06975 11.8477C5.97675 13.4937 5.97675 18.4277 6.06975 20.0737C6.03686 21.6235 6.61521 23.124 7.67975 24.2507C8.80951 25.3094 10.3077 25.8856 11.8557 25.8568C13.5017 25.9498 18.4338 25.9498 20.0798 25.8568C21.6292 25.8894 23.1292 25.311 24.2557 24.2467C25.3166 23.1177 25.8943 21.6188 25.8657 20.0697C25.9587 18.4237 25.9587 13.4948 25.8657 11.8488L25.8667 11.8568ZM23.7407 21.8438C23.5722 22.2735 23.3169 22.664 22.9909 22.9909C22.6649 23.3178 22.2751 23.574 21.8457 23.7437C20.5337 24.2647 17.4198 24.1437 15.9698 24.1437C14.5198 24.1437 11.4018 24.2598 10.0938 23.7437C9.66442 23.574 9.27461 23.3178 8.94859 22.9909C8.62258 22.664 8.36734 22.2735 8.19875 21.8438C7.67875 20.5317 7.79875 17.4167 7.79875 15.9668C7.79875 14.5168 7.68275 11.3978 8.19875 10.0898C8.36734 9.65997 8.62258 9.26949 8.94859 8.94261C9.27461 8.61574 9.66442 8.35947 10.0938 8.18975C11.4058 7.66875 14.5198 7.78975 15.9698 7.78975C17.4198 7.78975 20.5378 7.67375 21.8457 8.18975C22.2751 8.35947 22.6649 8.61574 22.9909 8.94261C23.3169 9.26949 23.5722 9.65997 23.7407 10.0898C24.2607 11.4018 24.1407 14.5168 24.1407 15.9668C24.1407 17.4167 24.2607 20.5318 23.7407 21.8398V21.8438Z" fill="black"/>
</svg>
