<svg width="14" height="16" viewBox="0 0 14 16" fill="none" xmlns="http://www.w3.org/2000/svg">
<path d="M7 8.15287C7.48125 8.15287 7.89337 7.99307 8.23637 7.67348C8.57879 7.35443 8.75 6.9707 8.75 6.52229C8.75 6.07389 8.57879 5.68989 8.23637 5.37029C7.89337 5.05124 7.48125 4.89172 7 4.89172C6.51875 4.89172 6.10692 5.05124 5.7645 5.37029C5.4215 5.68989 5.25 6.07389 5.25 6.52229C5.25 6.9707 5.4215 7.35443 5.7645 7.67348C6.10692 7.99307 6.51875 8.15287 7 8.15287ZM7 16C6.88333 16 6.76667 15.9796 6.65 15.9389C6.53333 15.8981 6.43125 15.8437 6.34375 15.7758C4.21458 14.0229 2.625 12.3959 1.575 10.8947C0.525 9.39292 0 7.98981 0 6.68535C0 4.64713 0.703792 3.02335 2.11138 1.81401C3.51838 0.604671 5.14792 0 7 0C8.85208 0 10.4816 0.604671 11.8886 1.81401C13.2962 3.02335 14 4.64713 14 6.68535C14 7.98981 13.475 9.39292 12.425 10.8947C11.375 12.3959 9.78542 14.0229 7.65625 15.7758C7.56875 15.8437 7.46667 15.8981 7.35 15.9389C7.23333 15.9796 7.11667 16 7 16Z" fill="black"/>
</svg>
