<svg width="32" height="32" viewBox="0 0 32 32" fill="none" xmlns="http://www.w3.org/2000/svg">
<path d="M0 16C0 10.3995 0 7.59921 1.08993 5.4601C2.04867 3.57847 3.57847 2.04867 5.4601 1.08993C7.59921 0 10.3995 0 16 0C21.6005 0 24.4008 0 26.5399 1.08993C28.4215 2.04867 29.9513 3.57847 30.9101 5.4601C32 7.59921 32 10.3995 32 16C32 21.6005 32 24.4008 30.9101 26.5399C29.9513 28.4215 28.4215 29.9513 26.5399 30.9101C24.4008 32 21.6005 32 16 32C10.3995 32 7.59921 32 5.4601 30.9101C3.57847 29.9513 2.04867 28.4215 1.08993 26.5399C0 24.4008 0 21.6005 0 16Z" fill="#F9DB2F"/>
<path d="M7.254 7.77441L14.04 16.8484L7.211 24.2264H8.74799L14.727 17.7674L19.558 24.2264H24.789L17.621 14.6414L23.978 7.77441H22.441L16.935 13.7234L12.486 7.77441H7.254ZM9.51401 8.90642H11.914L22.525 23.0934H20.125L9.51401 8.90642Z" fill="black"/>
</svg>
