<svg width="32" height="32" viewBox="0 0 32 32" fill="none" xmlns="http://www.w3.org/2000/svg">
<path d="M0 16C0 10.3995 0 7.59921 1.08993 5.4601C2.04867 3.57847 3.57847 2.04867 5.4601 1.08993C7.59921 0 10.3995 0 16 0C21.6005 0 24.4008 0 26.5399 1.08993C28.4215 2.04867 29.9513 3.57847 30.9101 5.4601C32 7.59921 32 10.3995 32 16C32 21.6005 32 24.4008 30.9101 26.5399C29.9513 28.4215 28.4215 29.9513 26.5399 30.9101C24.4008 32 21.6005 32 16 32C10.3995 32 7.59921 32 5.4601 30.9101C3.57847 29.9513 2.04867 28.4215 1.08993 26.5399C0 24.4008 0 21.6005 0 16Z" fill="#F9DB2F"/>
<path d="M26.705 10.6016C26.5787 10.1263 26.3298 9.69246 25.9832 9.34358C25.6366 8.99469 25.2044 8.74295 24.73 8.61355C22.987 8.14355 15.999 8.14355 15.999 8.14355C15.999 8.14355 9.01097 8.14355 7.26797 8.61355C6.79351 8.74295 6.36136 8.99469 6.01475 9.34358C5.66815 9.69246 5.41925 10.1263 5.29297 10.6016C4.97081 12.388 4.81448 14.2004 4.82597 16.0156C4.81448 17.8308 4.97081 19.6431 5.29297 21.4296C5.42019 21.9012 5.67005 22.3307 6.01713 22.6745C6.36421 23.0182 6.79613 23.2639 7.26897 23.3866C9.01197 23.8566 16 23.8566 16 23.8566C16 23.8566 22.988 23.8566 24.731 23.3866C25.2038 23.2639 25.6357 23.0182 25.9828 22.6745C26.3299 22.3307 26.5797 21.9012 26.707 21.4296C27.0291 19.6431 27.1855 17.8308 27.174 16.0156C27.1855 14.2004 27.0291 12.388 26.707 10.6016H26.705ZM13.714 19.3386V12.6926L19.555 16.0156L13.714 19.3386Z" fill="black"/>
</svg>
